<?xml version="1.0" encoding="UTF-8"?>
<svg id="Ebene_1" data-name="Ebene 1" xmlns="http://www.w3.org/2000/svg" viewBox="0 0 1000 415">
  <defs>
    <style>
      .cls-1 {
        fill: #c588bb;
      }

      .cls-1, .cls-2, .cls-3 {
        stroke-width: 0px;
      }

      .cls-2 {
        fill: #272629;
      }

      .cls-3 {
        fill: #3faaa5;
      }
    </style>
  </defs>
  <path class="cls-3" d="m302.89,302.9c-7.55,7.55-16.94,12.11-26.72,13.69-3.06.49-6.16.7-9.24.6-12.05-.34-23.99-5.1-33.16-14.3-14.52-14.5-38.04-14.5-52.54,0-7.54,7.55-16.94,12.11-26.72,13.69-3.06.49-6.14.7-9.24.6-12.03-.34-23.97-5.1-33.16-14.3-19.09-19.09-19.09-50.05-.02-69.14,14.52-14.5,14.52-38.02.02-52.52-19.09-19.09-19.09-50.05-.02-69.13,19.11-19.11,50.05-19.11,69.14,0,19.09,19.08,19.09,50.03,0,69.13-14.5,14.5-14.5,38.02,0,52.52,6.99,6.99,16.05,10.61,25.21,10.86,2.34.08,4.68-.08,7.01-.45,7.44-1.21,14.58-4.66,20.3-10.41,19.09-19.09,50.05-19.09,69.14,0,19.09,19.09,19.09,50.05,0,69.14Z"/>
  <path class="cls-1" d="m317.21,146.67c0,27-21.89,48.88-48.89,48.88-10.67,0-20.54-3.42-28.58-9.22-2.51-1.81-4.84-3.85-6.96-6.1-8.28-8.75-13.35-20.56-13.35-33.57,0-27.01,21.89-48.89,48.88-48.89,27.01,0,48.89,21.89,48.89,48.89Z"/>
  <path class="cls-2" d="m398.64,255.55v-81.84h-32.53v-13.42h81.34v13.42h-32.53v81.84h-16.27Z"/>
  <path class="cls-2" d="m506.81,256.89c-8.72,0-16.21-1.65-22.47-4.95-6.26-3.3-11.04-8.1-14.34-14.42-3.3-6.31-4.95-13.89-4.95-22.73v-54.5h16.27v54.17c0,9.28,2.21,16.32,6.62,21.13,4.42,4.81,10.76,7.21,19.04,7.21s14.62-2.37,19.03-7.13c4.42-4.75,6.63-11.83,6.63-21.22v-54.17h15.93v54.5c0,8.84-1.65,16.41-4.95,22.73-3.3,6.32-8.08,11.13-14.34,14.42-6.26,3.3-13.75,4.95-22.47,4.95Z"/>
  <path class="cls-2" d="m569.19,255.55v-95.26h38.91c8.39,0,15.6,1.32,21.63,3.94,6.04,2.63,10.73,6.43,14.09,11.4,3.36,4.98,5.03,11.04,5.03,18.19s-1.68,12.91-5.03,17.94c-3.35,5.03-8.05,8.86-14.09,11.49-6.04,2.63-13.25,3.94-21.63,3.94h-29.85l7.21-7.38v35.72h-16.27Zm16.27-33.88l-6.2-7.71h27.84c8.27,0,14.56-1.73,18.87-5.2,4.3-3.46,6.46-8.44,6.46-14.93s-2.16-11.46-6.46-14.93c-4.3-3.46-10.59-5.2-18.87-5.2h-27.84l6.2-7.71v55.68Zm47.46,33.88l-24.82-34.55h17.61l24.82,34.55h-17.61Z"/>
  <path class="cls-2" d="m668.48,255.55v-95.26h16.27v95.26h-16.27Z"/>
  <path class="cls-2" d="m708.76,255.55v-95.26h13.42l61.21,75.13h-6.2v-75.13h16.27v95.26h-13.42l-61.38-75.13h6.37v75.13h-16.27Z"/>
  <path class="cls-2" d="m901.22,244.65c-3.13,2.57-6.65,4.78-10.57,6.62-3.92,1.84-8.11,3.24-12.58,4.19-4.47.95-9,1.43-13.58,1.43-10.06,0-19.06-2.12-27-6.37-7.94-4.25-14.17-10.09-18.7-17.53-4.53-7.43-6.79-15.79-6.79-25.07s2.26-17.92,6.79-25.24c4.53-7.32,10.67-13.11,18.45-17.36,7.77-4.25,16.63-6.37,26.58-6.37,8.27,0,15.65,1.23,22.14,3.69,6.48,2.46,11.91,6.21,16.27,11.24l-10.4,10.57c-3.69-3.91-7.85-6.79-12.49-8.64-4.64-1.85-9.7-2.77-15.18-2.77-6.82,0-12.94,1.48-18.36,4.44-5.42,2.96-9.67,7.07-12.75,12.33-3.08,5.26-4.61,11.29-4.61,18.11s1.56,12.55,4.7,17.86c3.13,5.31,7.43,9.47,12.91,12.49,5.48,3.02,11.68,4.53,18.62,4.53,5.36,0,10.28-.81,14.76-2.43,4.47-1.62,8.61-4.16,12.41-7.63l9.39,11.91Zm-15.76.17v-37.4h15.76v37.23l-15.76.17Z"/>
</svg>