<?xml version="1.0" encoding="UTF-8"?>
<svg id="Ebene_1" data-name="Ebene 1" xmlns="http://www.w3.org/2000/svg" viewBox="0 0 415 415">
  <defs>
    <style>
      .cls-1 {
        fill: #c588bb;
      }

      .cls-1, .cls-2 {
        stroke-width: 0px;
      }

      .cls-2 {
        fill: #3faaa5;
      }
    </style>
  </defs>
  <path class="cls-2" d="m302.9,302.9c-7.55,7.55-16.94,12.11-26.72,13.69-3.06.49-6.16.7-9.24.6-12.05-.34-23.99-5.1-33.16-14.3-14.52-14.5-38.04-14.5-52.54,0-7.54,7.55-16.94,12.11-26.72,13.69-3.06.49-6.14.7-9.24.6-12.03-.34-23.97-5.1-33.16-14.3-19.09-19.09-19.09-50.05-.02-69.14,14.52-14.5,14.52-38.02.02-52.52-19.09-19.09-19.09-50.05-.02-69.13,19.11-19.11,50.05-19.11,69.14,0,19.09,19.08,19.09,50.03,0,69.13-14.5,14.5-14.5,38.02,0,52.52,6.99,6.99,16.05,10.61,25.21,10.86,2.34.08,4.68-.08,7.01-.45,7.44-1.21,14.58-4.66,20.3-10.41,19.09-19.09,50.05-19.09,69.14,0,19.09,19.09,19.09,50.05,0,69.14Z"/>
  <path class="cls-1" d="m317.22,146.67c0,27-21.89,48.88-48.89,48.88-10.67,0-20.54-3.42-28.58-9.22-2.51-1.81-4.84-3.85-6.96-6.1-8.28-8.75-13.35-20.56-13.35-33.57,0-27.01,21.89-48.89,48.88-48.89,27.01,0,48.89,21.89,48.89,48.89Z"/>
</svg>